<svg width="125" height="125" viewBox="0 0 125 125" fill="none" xmlns="http://www.w3.org/2000/svg">
<g clip-path="url(#clip0_31_73)">
<rect width="125" height="125" rx="10" fill="white"/>
<rect width="125" height="125" fill="white"/>
<g filter="url(#filter0_d_31_73)">
<path d="M67.125 107L69.125 112.125C65.375 112.042 61.4583 110.833 57.375 108.5C53.2917 106.167 49.4583 103.25 45.875 99.75C42.375 96.1667 39.2083 92.5833 36.375 89C33.625 85.3333 31.25 81.75 29.25 78.25L19.375 77.125C19.5417 83.2083 19.875 92.6667 20.375 105.5C19.625 108.083 18.1667 109.375 16 109.375C14.5 109.375 13.0417 108.75 11.625 107.5C10.2917 106.333 9.45833 104.875 9.125 103.125C9.375 96.125 9.625 82.5 9.875 62.25C10.2083 42 10.625 26.3333 11.125 15.25L16.75 13.75C16.75 16.4167 16.7917 17.9167 16.875 18.25C21.625 15.0833 28.2917 13.5 36.875 13.5C46.125 13.5 53.0417 16.4167 57.625 22.25C62.2083 28 64.5 36.0833 64.5 46.5C64.5 50.3333 64.0417 54.0417 63.125 57.625C62.2083 61.125 60.8333 64.4167 59 67.5C57.25 70.5833 54.7917 73.125 51.625 75.125C48.4583 77.125 44.8333 78.2917 40.75 78.625C43.6667 84.7083 47.5833 90.625 52.5 96.375C57.4167 102.125 62.2917 105.667 67.125 107ZM18 26.625L19 65.625C23.5833 68.125 28.875 69.375 34.875 69.375C40.625 69.375 45.5 67.2083 49.5 62.875C53.5 58.5417 55.5 53.25 55.5 47C55.5 40.25 53.4167 34.1667 49.25 28.75C45.0833 23.3333 39.875 20.625 33.625 20.625C28.5417 20.625 23.3333 22.625 18 26.625ZM119.875 92.875L121.125 98.375C117.458 99.7083 112 101.208 104.75 102.875C97.5833 104.458 92.25 105.25 88.75 105.25C85.1667 105.25 82.0417 104.083 79.375 101.75C76.7083 99.3333 74.7083 96.2917 73.375 92.625C72.0417 88.875 71.0417 85.2083 70.375 81.625C69.7917 77.9583 69.5 74.375 69.5 70.875C69.5 50.0417 78.9167 39.625 97.75 39.625C102.25 39.625 106.208 41.0833 109.625 44C113.042 46.8333 114.75 50.5417 114.75 55.125C114.75 57.625 114.042 59.8333 112.625 61.75C111.292 63.6667 109.625 65.2083 107.625 66.375C105.708 67.4583 103.208 68.4583 100.125 69.375C97.125 70.2917 94.4583 70.9583 92.125 71.375C89.7917 71.7917 87 72.25 83.75 72.75C80.5 73.25 78.25 73.625 77 73.875C77.0833 76.2917 77.2083 78.4167 77.375 80.25C77.625 82.0833 78.0417 84.0833 78.625 86.25C79.2917 88.3333 80.125 90.0833 81.125 91.5C82.2083 92.8333 83.6667 93.9583 85.5 94.875C87.3333 95.7917 89.5 96.25 92 96.25C95 96.25 98.6667 96 103 95.5C107.333 94.9167 111.167 94.3333 114.5 93.75C117.917 93.1667 119.708 92.875 119.875 92.875ZM77.5 66.125C88.8333 62.875 98.125 59.4583 105.375 55.875C104.792 53.125 104 51.125 103 49.875C102 48.625 100.5 48 98.5 48C93.4167 48 88.7917 49.75 84.625 53.25C80.5417 56.75 78.1667 61.0417 77.5 66.125Z" fill="black"/>
</g>
</g>
<defs>
<filter id="filter0_d_31_73" x="6.125" y="10.5" width="120" height="106.625" filterUnits="userSpaceOnUse" color-interpolation-filters="sRGB">
<feFlood flood-opacity="0" result="BackgroundImageFix"/>
<feColorMatrix in="SourceAlpha" type="matrix" values="0 0 0 0 0 0 0 0 0 0 0 0 0 0 0 0 0 0 127 0" result="hardAlpha"/>
<feOffset dx="1" dy="1"/>
<feGaussianBlur stdDeviation="2"/>
<feComposite in2="hardAlpha" operator="out"/>
<feColorMatrix type="matrix" values="0 0 0 0 0 0 0 0 0 0 0 0 0 0 0 0 0 0 0.25 0"/>
<feBlend mode="normal" in2="BackgroundImageFix" result="effect1_dropShadow_31_73"/>
<feBlend mode="normal" in="SourceGraphic" in2="effect1_dropShadow_31_73" result="shape"/>
</filter>
<clipPath id="clip0_31_73">
<rect width="125" height="125" rx="10" fill="white"/>
</clipPath>
</defs>
</svg>
