<svg width="125" height="125" viewBox="0 0 125 125" fill="none" xmlns="http://www.w3.org/2000/svg">
<g clip-path="url(#clip0_31_79)">
<rect width="125" height="125" rx="62.5" fill="white"/>
<rect width="125" height="125" fill="black"/>
<g filter="url(#filter0_d_31_79)">
<path d="M66.2217 97.6094L67.8311 101.733C64.8135 101.666 61.6618 100.694 58.376 98.8164C55.0902 96.9388 52.0055 94.5918 49.1221 91.7754C46.3057 88.8919 43.7575 86.0085 41.4775 83.125C39.2646 80.1745 37.3535 77.291 35.7441 74.4746L27.7979 73.5693C27.932 78.4645 28.2002 86.0755 28.6025 96.4023C27.999 98.4811 26.8255 99.5205 25.082 99.5205C23.875 99.5205 22.7015 99.0176 21.5615 98.0117C20.4886 97.0729 19.818 95.8994 19.5498 94.4912C19.751 88.8584 19.9521 77.8945 20.1533 61.5996C20.4215 45.3047 20.7568 32.6979 21.1592 23.7793L25.6855 22.5723C25.6855 24.7181 25.7191 25.9251 25.7861 26.1934C29.6084 23.6452 34.973 22.3711 41.8799 22.3711C49.3232 22.3711 54.889 24.7181 58.5771 29.4121C62.2653 34.0391 64.1094 40.5436 64.1094 48.9258C64.1094 52.0104 63.7406 54.9945 63.0029 57.8779C62.2653 60.6943 61.1589 63.3431 59.6836 65.8242C58.2754 68.3053 56.2972 70.3506 53.749 71.96C51.2008 73.5693 48.2839 74.5081 44.998 74.7764C47.3451 79.6715 50.4967 84.4326 54.4531 89.0596C58.4095 93.6865 62.3324 96.5365 66.2217 97.6094ZM26.6914 32.9326L27.4961 64.3154C31.1842 66.3271 35.4424 67.333 40.2705 67.333C44.8975 67.333 48.8203 65.5895 52.0391 62.1025C55.2578 58.6156 56.8672 54.3574 56.8672 49.3281C56.8672 43.8965 55.1908 39.0013 51.8379 34.6426C48.485 30.2839 44.2939 28.1045 39.2646 28.1045C35.1742 28.1045 30.9831 29.7139 26.6914 32.9326ZM108.669 86.2432L109.675 90.6689C106.724 91.7419 102.332 92.9489 96.498 94.29C90.7311 95.5641 86.4395 96.2012 83.623 96.2012C80.7396 96.2012 78.2249 95.2624 76.0791 93.3848C73.9333 91.4401 72.3239 88.9925 71.251 86.042C70.1781 83.0244 69.3734 80.0739 68.8369 77.1904C68.3675 74.2399 68.1328 71.3564 68.1328 68.54C68.1328 51.7757 75.7103 43.3936 90.8652 43.3936C94.4863 43.3936 97.6715 44.5671 100.421 46.9141C103.17 49.194 104.545 52.1781 104.545 55.8662C104.545 57.8779 103.975 59.6549 102.835 61.1973C101.762 62.7396 100.421 63.9801 98.8115 64.9189C97.2692 65.7907 95.2575 66.5954 92.7764 67.333C90.3623 68.0706 88.2165 68.6071 86.3389 68.9424C84.4613 69.2777 82.2148 69.6465 79.5996 70.0488C76.9844 70.4512 75.1738 70.7529 74.168 70.9541C74.235 72.8988 74.3356 74.6087 74.4697 76.084C74.6709 77.5592 75.0062 79.1686 75.4756 80.9121C76.012 82.5885 76.6826 83.9967 77.4873 85.1367C78.359 86.2096 79.5326 87.1149 81.0078 87.8525C82.4831 88.5902 84.2266 88.959 86.2383 88.959C88.6523 88.959 91.6029 88.7578 95.0898 88.3555C98.5768 87.8861 101.661 87.4167 104.344 86.9473C107.093 86.4779 108.535 86.2432 108.669 86.2432ZM74.5703 64.7178C83.6901 62.1025 91.167 59.3532 97.001 56.4697C96.5316 54.2568 95.8945 52.6475 95.0898 51.6416C94.2852 50.6357 93.0781 50.1328 91.4688 50.1328C87.3783 50.1328 83.6566 51.541 80.3037 54.3574C77.0179 57.1738 75.1068 60.6273 74.5703 64.7178Z" fill="white"/>
</g>
</g>
<defs>
<filter id="filter0_d_31_79" x="16.5498" y="19.3711" width="98.125" height="87.3623" filterUnits="userSpaceOnUse" color-interpolation-filters="sRGB">
<feFlood flood-opacity="0" result="BackgroundImageFix"/>
<feColorMatrix in="SourceAlpha" type="matrix" values="0 0 0 0 0 0 0 0 0 0 0 0 0 0 0 0 0 0 127 0" result="hardAlpha"/>
<feOffset dx="1" dy="1"/>
<feGaussianBlur stdDeviation="2"/>
<feComposite in2="hardAlpha" operator="out"/>
<feColorMatrix type="matrix" values="0 0 0 0 1 0 0 0 0 1 0 0 0 0 1 0 0 0 0.25 0"/>
<feBlend mode="normal" in2="BackgroundImageFix" result="effect1_dropShadow_31_79"/>
<feBlend mode="normal" in="SourceGraphic" in2="effect1_dropShadow_31_79" result="shape"/>
</filter>
<clipPath id="clip0_31_79">
<rect width="125" height="125" rx="62.5" fill="white"/>
</clipPath>
</defs>
</svg>
